<?xml version="1.0" encoding="UTF-8" standalone="no"?><!DOCTYPE svg PUBLIC "-//W3C//DTD SVG 1.1//EN" "http://www.w3.org/Graphics/SVG/1.1/DTD/svg11.dtd"><!-- Generated by graphviz version 2.40.1 (20161225.0304)
 --><!-- Title: g Pages: 1 --><svg xmlns="http://www.w3.org/2000/svg" xmlns:xlink="http://www.w3.org/1999/xlink" width="249pt" height="335pt" viewBox="0.00 0.00 248.75 334.72">
<g id="graph0" class="graph" transform="scale(1 1) rotate(0) translate(4 330.7164)">
<title>g</title>
<polygon fill="#ffffff" stroke="transparent" points="-4,4 -4,-330.7164 244.7495,-330.7164 244.7495,4 -4,4"/>
<!-- 1800357653712 -->
<g id="node1" class="node">
<title>1800357653712</title>
<ellipse fill="none" stroke="#000000" cx="96.5362" cy="-309.1801" rx="17.5726" ry="17.5726"/>
<text text-anchor="middle" x="96.5362" y="-304.9801" font-family="Times,serif" font-size="14.00" fill="#000000">/</text>
</g>
<!-- 1800357652944 -->
<g id="node2" class="node">
<title>1800357652944</title>
<ellipse fill="none" stroke="#000000" cx="70.5362" cy="-238.1076" rx="17.5726" ry="17.5726"/>
<text text-anchor="middle" x="70.5362" y="-233.9076" font-family="Times,serif" font-size="14.00" fill="#000000">+</text>
</g>
<!-- 1800357653712&#45;&gt;1800357652944 -->
<g id="edge1" class="edge">
<title>1800357653712-&gt;1800357652944</title>
<path fill="none" stroke="#000000" d="M86.9728,-283.0378C83.5469,-273.673 79.778,-263.3705 76.7144,-254.9959"/>
<polygon fill="#000000" stroke="#000000" points="83.7834,-284.5072 90.506,-292.696 90.3573,-282.1022 83.7834,-284.5072"/>
</g>
<!-- 1800357653616 -->
<g id="node3" class="node">
<title>1800357653616</title>
<ellipse fill="none" stroke="#000000" cx="123.5362" cy="-238.1076" rx="17.5726" ry="17.5726"/>
<text text-anchor="middle" x="123.5362" y="-233.9076" font-family="Times,serif" font-size="14.00" fill="#000000">+</text>
</g>
<!-- 1800357653712&#45;&gt;1800357653616 -->
<g id="edge2" class="edge">
<title>1800357653712-&gt;1800357653616</title>
<path fill="none" stroke="#000000" d="M106.4083,-283.1937C110.0518,-273.6028 114.0762,-263.0095 117.308,-254.5024"/>
<polygon fill="#000000" stroke="#000000" points="103.078,-282.1049 102.7985,-292.696 109.6217,-284.5909 103.078,-282.1049"/>
</g>
<!-- 1800357652560 -->
<g id="node4" class="node">
<title>1800357652560</title>
<ellipse fill="none" stroke="#000000" cx="17.5362" cy="-167.0352" rx="17.5726" ry="17.5726"/>
<text text-anchor="middle" x="17.5362" y="-162.8352" font-family="Times,serif" font-size="14.00" fill="#000000">1</text>
</g>
<!-- 1800357652944&#45;&gt;1800357652560 -->
<g id="edge3" class="edge">
<title>1800357652944-&gt;1800357652560</title>
<path fill="none" stroke="#000000" d="M53.7812,-215.6393C45.4261,-204.4352 35.5694,-191.2175 28.2456,-181.3963"/>
<polygon fill="#000000" stroke="#000000" points="51.0271,-217.8009 59.8109,-223.7251 56.6386,-213.6163 51.0271,-217.8009"/>
</g>
<!-- 1800357652848 -->
<g id="node5" class="node">
<title>1800357652848</title>
<ellipse fill="none" stroke="#000000" cx="70.5362" cy="-167.0352" rx="17.5726" ry="17.5726"/>
<text text-anchor="middle" x="70.5362" y="-162.8352" font-family="Times,serif" font-size="14.00" fill="#000000">*</text>
</g>
<!-- 1800357652944&#45;&gt;1800357652848 -->
<g id="edge4" class="edge">
<title>1800357652944-&gt;1800357652848</title>
<path fill="none" stroke="#000000" d="M70.5362,-210.5131C70.5362,-201.9082 70.5362,-192.6486 70.5362,-184.8952"/>
<polygon fill="#000000" stroke="#000000" points="67.0363,-210.5391 70.5362,-220.5392 74.0363,-210.5392 67.0363,-210.5391"/>
</g>
<!-- 1800357653040 -->
<g id="node8" class="node">
<title>1800357653040</title>
<ellipse fill="none" stroke="#000000" cx="123.5362" cy="-167.0352" rx="17.5726" ry="17.5726"/>
<text text-anchor="middle" x="123.5362" y="-162.8352" font-family="Times,serif" font-size="14.00" fill="#000000">3</text>
</g>
<!-- 1800357653616&#45;&gt;1800357653040 -->
<g id="edge7" class="edge">
<title>1800357653616-&gt;1800357653040</title>
<path fill="none" stroke="#000000" d="M123.5362,-210.5131C123.5362,-201.9082 123.5362,-192.6486 123.5362,-184.8952"/>
<polygon fill="#000000" stroke="#000000" points="120.0363,-210.5391 123.5362,-220.5392 127.0363,-210.5392 120.0363,-210.5391"/>
</g>
<!-- 1800357653520 -->
<g id="node9" class="node">
<title>1800357653520</title>
<ellipse fill="none" stroke="#000000" cx="176.5362" cy="-167.0352" rx="17.5726" ry="17.5726"/>
<text text-anchor="middle" x="176.5362" y="-162.8352" font-family="Times,serif" font-size="14.00" fill="#000000">-</text>
</g>
<!-- 1800357653616&#45;&gt;1800357653520 -->
<g id="edge8" class="edge">
<title>1800357653616-&gt;1800357653520</title>
<path fill="none" stroke="#000000" d="M140.2913,-215.6393C148.6464,-204.4352 158.5031,-191.2175 165.8269,-181.3963"/>
<polygon fill="#000000" stroke="#000000" points="137.4339,-213.6163 134.2616,-223.7251 143.0454,-217.8009 137.4339,-213.6163"/>
</g>
<!-- 1800357652656 -->
<g id="node6" class="node">
<title>1800357652656</title>
<ellipse fill="none" stroke="#000000" cx="30.5362" cy="-92.2857" rx="17.5726" ry="17.5726"/>
<text text-anchor="middle" x="30.5362" y="-88.0857" font-family="Times,serif" font-size="14.00" fill="#000000">1</text>
</g>
<!-- 1800357652848&#45;&gt;1800357652656 -->
<g id="edge5" class="edge">
<title>1800357652848-&gt;1800357652656</title>
<path fill="none" stroke="#000000" d="M57.3946,-142.4768C51.2724,-131.036 44.1746,-117.7723 38.8137,-107.754"/>
<polygon fill="#000000" stroke="#000000" points="54.4441,-144.3814 62.2482,-151.547 60.616,-141.0787 54.4441,-144.3814"/>
</g>
<!-- 1800357652752 -->
<g id="node7" class="node">
<title>1800357652752</title>
<ellipse fill="none" stroke="#000000" cx="83.5362" cy="-92.2857" rx="17.5726" ry="17.5726"/>
<text text-anchor="middle" x="83.5362" y="-88.0857" font-family="Times,serif" font-size="14.00" fill="#000000">2</text>
</g>
<!-- 1800357652848&#45;&gt;1800357652752 -->
<g id="edge6" class="edge">
<title>1800357652848-&gt;1800357652752</title>
<path fill="none" stroke="#000000" d="M75.2764,-139.7794C77.0173,-129.7696 78.9402,-118.7126 80.4924,-109.7875"/>
<polygon fill="#000000" stroke="#000000" points="71.8167,-139.2464 73.5514,-149.6982 78.7131,-140.4459 71.8167,-139.2464"/>
</g>
<!-- 1800357653328 -->
<g id="node10" class="node">
<title>1800357653328</title>
<ellipse fill="none" stroke="#000000" cx="162.5362" cy="-92.2857" rx="17.5726" ry="17.5726"/>
<text text-anchor="middle" x="162.5362" y="-88.0857" font-family="Times,serif" font-size="14.00" fill="#000000">*</text>
</g>
<!-- 1800357653520&#45;&gt;1800357653328 -->
<g id="edge9" class="edge">
<title>1800357653520-&gt;1800357653328</title>
<path fill="none" stroke="#000000" d="M171.4174,-139.7043C169.5282,-129.6172 167.4415,-118.4759 165.7657,-109.5286"/>
<polygon fill="#000000" stroke="#000000" points="168.008,-140.5135 173.2892,-149.6982 174.8884,-139.2248 168.008,-140.5135"/>
</g>
<!-- 1800357653424 -->
<g id="node11" class="node">
<title>1800357653424</title>
<ellipse fill="none" stroke="#000000" cx="219.5362" cy="-92.2857" rx="21.4286" ry="21.4286"/>
<text text-anchor="middle" x="219.5362" y="-88.0857" font-family="Times,serif" font-size="14.00" fill="#000000">13</text>
</g>
<!-- 1800357653520&#45;&gt;1800357653424 -->
<g id="edge10" class="edge">
<title>1800357653520-&gt;1800357653424</title>
<path fill="none" stroke="#000000" d="M190.5846,-142.614C196.5108,-132.3122 203.2989,-120.5121 208.812,-110.9283"/>
<polygon fill="#000000" stroke="#000000" points="187.3985,-141.1336 185.4459,-151.547 193.4661,-144.6241 187.3985,-141.1336"/>
</g>
<!-- 1800357653136 -->
<g id="node12" class="node">
<title>1800357653136</title>
<ellipse fill="none" stroke="#000000" cx="135.5362" cy="-17.5362" rx="17.5726" ry="17.5726"/>
<text text-anchor="middle" x="135.5362" y="-13.3362" font-family="Times,serif" font-size="14.00" fill="#000000">5</text>
</g>
<!-- 1800357653328&#45;&gt;1800357653136 -->
<g id="edge11" class="edge">
<title>1800357653328-&gt;1800357653136</title>
<path fill="none" stroke="#000000" d="M153.0552,-66.0374C149.2158,-55.4082 144.8993,-43.458 141.5117,-34.0792"/>
<polygon fill="#000000" stroke="#000000" points="149.8549,-67.4802 156.5441,-75.6964 156.4386,-65.1021 149.8549,-67.4802"/>
</g>
<!-- 1800357653232 -->
<g id="node13" class="node">
<title>1800357653232</title>
<ellipse fill="none" stroke="#000000" cx="188.5362" cy="-17.5362" rx="17.5726" ry="17.5726"/>
<text text-anchor="middle" x="188.5362" y="-13.3362" font-family="Times,serif" font-size="14.00" fill="#000000">8</text>
</g>
<!-- 1800357653328&#45;&gt;1800357653232 -->
<g id="edge12" class="edge">
<title>1800357653328-&gt;1800357653232</title>
<path fill="none" stroke="#000000" d="M171.6416,-66.1081C175.311,-55.5586 179.4365,-43.6978 182.6922,-34.3377"/>
<polygon fill="#000000" stroke="#000000" points="168.286,-65.1016 168.3065,-75.6964 174.8975,-67.4013 168.286,-65.1016"/>
</g>
</g>
</svg>