<svg version="1.1" xmlns="http://www.w3.org/2000/svg" viewBox="0 0 312.3382820118578 567.6015625" width="312.3382820118578" height="567.6015625">
  <!-- svg-source:excalidraw -->
  
  <defs>
    <style class="style-fonts">
      @font-face {
        font-family: "Virgil";
        src: url("https://excalidraw.com/Virgil.woff2");
      }
      @font-face {
        font-family: "Cascadia";
        src: url("https://excalidraw.com/Cascadia.woff2");
      }
      @font-face {
        font-family: "Assistant";
        src: url("https://excalidraw.com/Assistant-Regular.woff2");
      }
    </style>
    
  </defs>
  <g stroke-linecap="round" transform="translate(98.2329753926133 10) rotate(0 49.56640625 25.521484375)"><path d="M12.76 0 C33.16 -0.78, 55.44 0.83, 86.37 0 M12.76 0 C36.91 0.8, 60.02 0.4, 86.37 0 M86.37 0 C96.6 0.77, 98.34 4.09, 99.13 12.76 M86.37 0 C96.45 -1.61, 97.21 3.64, 99.13 12.76 M99.13 12.76 C97.64 21.03, 99.6 32.26, 99.13 38.28 M99.13 12.76 C99.99 19.92, 99.55 26.67, 99.13 38.28 M99.13 38.28 C101.01 47.08, 94 50.17, 86.37 51.04 M99.13 38.28 C98.13 46.79, 94.77 50.48, 86.37 51.04 M86.37 51.04 C59.01 50.32, 30.72 51.84, 12.76 51.04 M86.37 51.04 C68.81 49.74, 49.78 51.45, 12.76 51.04 M12.76 51.04 C3.01 49.21, -1.09 48.64, 0 38.28 M12.76 51.04 C2.41 51.18, 0.77 47.03, 0 38.28 M0 38.28 C-1.09 31.21, -1.48 22.91, 0 12.76 M0 38.28 C0.7 29.69, -1.16 21.86, 0 12.76 M0 12.76 C-1.98 3.33, 4.82 1.91, 12.76 0 M0 12.76 C-0.77 2.26, 5.25 -1.92, 12.76 0" stroke="#1e1e1e" stroke-width="2" fill="none"></path></g><g transform="translate(116.4794124653672 23.021484375) rotate(0 31.319969177246094 12.5)"><text x="31.319969177246094" y="17.52" font-family="Virgil, Segoe UI Emoji" font-size="20px" fill="#1e1e1e" text-anchor="middle" style="white-space: pre;" direction="ltr" dominant-baseline="alphabetic">Logger</text></g><g stroke-linecap="round" transform="translate(88.4048503926133 168.595703125) rotate(0 57.7265625 30)"><path d="M15 0 C47.92 -1.06, 82.54 0.98, 100.45 0 M15 0 C47.32 0.83, 78.04 -0.37, 100.45 0 M100.45 0 C111.82 -0.04, 114.4 3.24, 115.45 15 M100.45 0 C108.3 1.68, 116.43 3.2, 115.45 15 M115.45 15 C114.02 25.53, 115.12 36.64, 115.45 45 M115.45 15 C115.91 25.67, 116.25 36.32, 115.45 45 M115.45 45 C113.59 55.2, 109.95 60.54, 100.45 60 M115.45 45 C113.93 55.12, 108.51 58.92, 100.45 60 M100.45 60 C67.12 58.14, 33.79 60.52, 15 60 M100.45 60 C74.12 60.82, 49.58 59.84, 15 60 M15 60 C4.77 59.53, -0.71 55.46, 0 45 M15 60 C6.02 61.78, 1.83 53.42, 0 45 M0 45 C1.7 37.66, -1.49 27.86, 0 15 M0 45 C0.21 35.79, 0.46 26.37, 0 15 M0 15 C0.49 4.59, 3.72 1.06, 15 0 M0 15 C1.45 3.05, 6.25 -0.81, 15 0" stroke="#1e1e1e" stroke-width="2" fill="none"></path></g><g transform="translate(96.6914485981797 186.095703125) rotate(0 49.439964294433594 12.5)"><text x="49.439964294433594" y="17.52" font-family="Virgil, Segoe UI Emoji" font-size="20px" fill="#1e1e1e" text-anchor="middle" style="white-space: pre;" direction="ltr" dominant-baseline="alphabetic">Database</text></g><g stroke-linecap="round" transform="translate(87.2407878926133 326.634765625) rotate(0 65.525390625 30)"><path d="M15 0 C47.24 -2.06, 79.69 0.28, 116.05 0 M15 0 C39.49 0.06, 64.51 -1.08, 116.05 0 M116.05 0 C124.98 0.4, 130.99 3.09, 131.05 15 M116.05 0 C125.11 0.16, 131.57 7.06, 131.05 15 M131.05 15 C130.31 26.63, 130.87 35.97, 131.05 45 M131.05 15 C130.63 21.56, 131.2 29.86, 131.05 45 M131.05 45 C130.2 56.53, 125.99 59.02, 116.05 60 M131.05 45 C130.2 53.47, 126.6 61.24, 116.05 60 M116.05 60 C78.24 62.08, 40.73 59.1, 15 60 M116.05 60 C94.52 59.4, 72.98 59.66, 15 60 M15 60 C5.34 59.01, -0.86 53.69, 0 45 M15 60 C2.83 61.48, 0.68 53.14, 0 45 M0 45 C1.32 33.34, 1.41 21.07, 0 15 M0 45 C0.08 33.23, -1.26 22.84, 0 15 M0 15 C-0.26 6.57, 3.37 -0.34, 15 0 M0 15 C0.37 2.98, 6.44 1.73, 15 0" stroke="#1e1e1e" stroke-width="2" fill="none"></path></g><g transform="translate(96.66623344925392 344.134765625) rotate(0 56.099945068359375 12.5)"><text x="56.099945068359375" y="17.52" font-family="Virgil, Segoe UI Emoji" font-size="20px" fill="#1e1e1e" text-anchor="middle" style="white-space: pre;" direction="ltr" dominant-baseline="alphabetic">UserService</text></g><g stroke-linecap="round" transform="translate(98.6333660176133 497.6015625) rotate(0 65.525390625 30)"><path d="M15 0 C40.29 1.02, 68.05 -0.88, 116.05 0 M15 0 C47.46 0.67, 78.75 1.11, 116.05 0 M116.05 0 C126.54 -0.68, 131.71 4.84, 131.05 15 M116.05 0 C125.49 2.18, 131.21 6.51, 131.05 15 M131.05 15 C129.86 26.2, 130.37 36.46, 131.05 45 M131.05 15 C130.46 22.45, 130.6 32.44, 131.05 45 M131.05 45 C130.74 55.31, 127.58 61.78, 116.05 60 M131.05 45 C129.27 56.28, 128.19 58.55, 116.05 60 M116.05 60 C84.59 59.47, 56.95 58.64, 15 60 M116.05 60 C77.84 59.59, 39.2 58.8, 15 60 M15 60 C6.96 61.39, -1.94 55.71, 0 45 M15 60 C4.12 61.08, 1.86 55.81, 0 45 M0 45 C1.36 37.55, -0.79 28.5, 0 15 M0 45 C0.49 36.37, -1.17 28.17, 0 15 M0 15 C0.32 6.14, 6.63 -1.71, 15 0 M0 15 C-0.28 4.94, 4.91 0.7, 15 0" stroke="#1e1e1e" stroke-width="2" fill="none"></path></g><g transform="translate(107.56881371048439 515.1015625) rotate(0 56.589942932128906 12.5)"><text x="56.589942932128906" y="17.52" font-family="Virgil, Segoe UI Emoji" font-size="20px" fill="#1e1e1e" text-anchor="middle" style="white-space: pre;" direction="ltr" dominant-baseline="alphabetic">AuthService</text></g><g stroke-linecap="round"><g transform="translate(149.54069546314975 156.890625) rotate(0 0.05484627768038308 -47.423828125)"><path d="M-1.18 0.97 C-1.07 -15.18, -0.1 -80.05, 0.29 -95.84 M0.4 0.44 C0.4 -15.08, -0.65 -78.82, -0.56 -94.82" stroke="#1e1e1e" stroke-width="2" fill="none"></path></g><g transform="translate(149.54069546314975 156.890625) rotate(0 0.05484627768038308 -47.423828125)"><path d="M8.15 -71.39 C7.22 -77.48, 1.6 -82.38, -0.56 -94.82 M8.15 -71.39 C4.66 -81.17, 1.92 -88.6, -0.56 -94.82" stroke="#1e1e1e" stroke-width="2" fill="none"></path></g><g transform="translate(149.54069546314975 156.890625) rotate(0 0.05484627768038308 -47.423828125)"><path d="M-8.95 -71.27 C-5.28 -77.23, -6.29 -82.15, -0.56 -94.82 M-8.95 -71.27 C-5.78 -81.18, -1.86 -88.66, -0.56 -94.82" stroke="#1e1e1e" stroke-width="2" fill="none"></path></g></g><mask></mask><g stroke-linecap="round"><g transform="translate(152.4087566426133 316.92578125) rotate(0 -1.15234375 -43.953125)"><path d="M0.66 0.8 C0.15 -13.61, -2.65 -72.26, -3.03 -86.9 M-0.45 0.17 C-0.57 -14.51, -0.44 -73.64, -0.7 -88.49" stroke="#1e1e1e" stroke-width="2" fill="none"></path></g><g transform="translate(152.4087566426133 316.92578125) rotate(0 -1.15234375 -43.953125)"><path d="M8 -65.05 C6.81 -73.25, 4.54 -77.91, -0.7 -88.49 M8 -65.05 C5.08 -74.47, 2.27 -82.72, -0.7 -88.49" stroke="#1e1e1e" stroke-width="2" fill="none"></path></g><g transform="translate(152.4087566426133 316.92578125) rotate(0 -1.15234375 -43.953125)"><path d="M-9.1 -64.95 C-5.15 -73.27, -2.28 -77.96, -0.7 -88.49 M-9.1 -64.95 C-5.68 -74.33, -2.15 -82.63, -0.7 -88.49" stroke="#1e1e1e" stroke-width="2" fill="none"></path></g></g><mask></mask><g stroke-linecap="round"><g transform="translate(161.73854654302295 490.328125) rotate(0 -2.2952537040878838 -51.3466796875)"><path d="M0.79 0.67 C0.34 -16.42, -2.66 -86.08, -3.52 -103.15 M-0.26 -0.02 C-0.7 -16.9, -3.12 -84.6, -3.91 -101.85" stroke="#1e1e1e" stroke-width="2" fill="none"></path></g><g transform="translate(161.73854654302295 490.328125) rotate(0 -2.2952537040878838 -51.3466796875)"><path d="M5.57 -78.72 C4.62 -82.2, 0.56 -88.95, -3.91 -101.85 M5.57 -78.72 C2.04 -88, -1.94 -95.57, -3.91 -101.85" stroke="#1e1e1e" stroke-width="2" fill="none"></path></g><g transform="translate(161.73854654302295 490.328125) rotate(0 -2.2952537040878838 -51.3466796875)"><path d="M-11.52 -78.03 C-8.53 -81.78, -8.66 -88.69, -3.91 -101.85 M-11.52 -78.03 C-8.51 -87.43, -5.96 -95.26, -3.91 -101.85" stroke="#1e1e1e" stroke-width="2" fill="none"></path></g></g><mask></mask><g stroke-linecap="round"><g transform="translate(238.7212566426134 527.1757812499998) rotate(0 14.492187499999943 -236.41015624999991)"><path d="M-1 0.66 C9.27 -39.81, 66.67 -163.53, 61.14 -242.35 C55.61 -321.17, -18.42 -434.08, -34.16 -472.29 M0.67 -0.05 C11.35 -40.39, 68.66 -162.02, 63.26 -241.07 C57.86 -320.12, -15.66 -435.61, -31.72 -474.35" stroke="#1e1e1e" stroke-width="2" fill="none"></path></g><g transform="translate(238.7212566426134 527.1757812499998) rotate(0 14.492187499999943 -236.41015624999991)"><path d="M-13.49 -457.25 C-17.13 -463.67, -23.72 -467.63, -31.72 -474.35 M-13.49 -457.25 C-18.97 -463.2, -25.92 -469.24, -31.72 -474.35" stroke="#1e1e1e" stroke-width="2" fill="none"></path></g><g transform="translate(238.7212566426134 527.1757812499998) rotate(0 14.492187499999943 -236.41015624999991)"><path d="M-28.75 -449.53 C-28.51 -457.8, -31.18 -463.74, -31.72 -474.35 M-28.75 -449.53 C-28.98 -458.28, -30.67 -466.99, -31.72 -474.35" stroke="#1e1e1e" stroke-width="2" fill="none"></path></g></g><mask></mask><g stroke-linecap="round"><g transform="translate(80.3814128926133 355.01953125) rotate(0 -29.171875 -149.17578125)"><path d="M-1.09 0.21 C-12.65 -24.42, -72.52 -98.98, -70.32 -148.62 C-68.12 -198.25, -1.52 -272.55, 12.12 -297.62 M0.53 -0.72 C-10.56 -25.59, -69.9 -100.34, -68.02 -150.14 C-66.14 -199.95, -1.49 -274.89, 11.84 -299.58" stroke="#1e1e1e" stroke-width="2" fill="none"></path></g><g transform="translate(80.3814128926133 355.01953125) rotate(0 -29.171875 -149.17578125)"><path d="M5.79 -275.32 C7.63 -281.9, 10.5 -284.41, 11.84 -299.58 M5.79 -275.32 C8.45 -283.77, 9.99 -292.96, 11.84 -299.58" stroke="#1e1e1e" stroke-width="2" fill="none"></path></g><g transform="translate(80.3814128926133 355.01953125) rotate(0 -29.171875 -149.17578125)"><path d="M-8.39 -284.88 C-3.49 -289.23, 2.49 -289.63, 11.84 -299.58 M-8.39 -284.88 C-0.58 -289.8, 6.07 -295.53, 11.84 -299.58" stroke="#1e1e1e" stroke-width="2" fill="none"></path></g></g><mask></mask></svg>